<?xml version="1.0" encoding="UTF-8" standalone="no"?>
<svg
   xmlns:dc="http://purl.org/dc/elements/1.1/"
   xmlns:cc="http://creativecommons.org/ns#"
   xmlns:rdf="http://www.w3.org/1999/02/22-rdf-syntax-ns#"
   xmlns:svg="http://www.w3.org/2000/svg"
   xmlns="http://www.w3.org/2000/svg"
   xmlns:sodipodi="http://sodipodi.sourceforge.net/DTD/sodipodi-0.dtd"
   xmlns:inkscape="http://www.inkscape.org/namespaces/inkscape"
   version="1.1"
   id="Layer_2"
   x="0"
   y="0"
   viewBox="0 0 230 69.746292"
   xml:space="preserve"
   sodipodi:docname="PhonePe.svg"
   width="230"
   height="69.746292"
   inkscape:version="1.0.1 (3bc2e813f5, 2020-09-07)"><metadata
     id="metadata38"><rdf:RDF><cc:Work
         rdf:about=""><dc:format>image/svg+xml</dc:format><dc:type
           rdf:resource="http://purl.org/dc/dcmitype/StillImage" /><dc:title></dc:title></cc:Work></rdf:RDF></metadata><defs
     id="defs36" /><sodipodi:namedview
     pagecolor="#ffffff"
     bordercolor="#666666"
     borderopacity="1"
     objecttolerance="10"
     gridtolerance="10"
     guidetolerance="10"
     inkscape:pageopacity="0"
     inkscape:pageshadow="2"
     inkscape:window-width="1920"
     inkscape:window-height="1001"
     id="namedview34"
     showgrid="false"
     lock-margins="true"
     fit-margin-top="5"
     fit-margin-left="5"
     fit-margin-right="5"
     fit-margin-bottom="5"
     inkscape:zoom="3.5569614"
     inkscape:cx="101.12422"
     inkscape:cy="63.654088"
     inkscape:window-x="-9"
     inkscape:window-y="-9"
     inkscape:window-maximized="1"
     inkscape:current-layer="Layer_2" /><style
     id="style25">.st0{fill:#5f259f}</style><circle
     transform="rotate(-76.714)"
     class="st0"
     cx="-25.925503"
     cy="41.954033"
     r="29.873146"
     id="circle27"
     style="stroke-width:1.66889" /><path
     class="st0"
     d="M 156.07481,51.943274 V 41.095483 c 0,-2.670226 -1.00133,-4.005338 -3.50467,-4.005338 -1.00134,0 -2.16956,0.166889 -2.83712,0.333778 v 15.854464 c 0,0.500667 -0.50067,1.001334 -1.00133,1.001334 h -3.83845 c -0.50066,0 -1.00133,-0.500667 -1.00133,-1.001334 V 34.753698 c 0,-0.667556 0.50067,-1.168223 1.00133,-1.335113 2.50334,-0.834446 5.00667,-1.335113 7.6769,-1.335113 6.00801,0 9.34579,3.170893 9.34579,9.012011 v 12.349793 c 0,0.500667 -0.50067,1.001334 -1.00133,1.001334 h -2.33645 c -1.502,0 -2.50334,-1.168223 -2.50334,-2.503336 z m 15.02002,-6.508675 -0.16689,1.502002 c 0,2.002669 1.33511,3.170893 3.50467,3.170893 1.66889,0 3.1709,-0.500668 4.83979,-1.335113 0.16688,0 0.33377,-0.166889 0.50066,-0.166889 0.33378,0 0.50067,0.166889 0.66756,0.333778 0.16688,0.166889 0.50067,0.667556 0.50067,0.667556 0.33377,0.500668 0.66755,1.168225 0.66755,1.668892 0,0.834445 -0.50067,1.66889 -1.16822,2.002669 -1.83578,1.001334 -4.00534,1.502001 -6.34178,1.502001 -2.67024,0 -4.83979,-0.667556 -6.50868,-2.002669 -1.66889,-1.502001 -2.67023,-3.504671 -2.67023,-6.008007 v -6.508675 c 0,-5.173561 3.33778,-8.344454 9.01201,-8.344454 5.50734,0 8.67824,3.004004 8.67824,8.344454 v 4.005339 c 0,0.500667 -0.50067,1.001334 -1.00134,1.001334 h -10.51401 z m -0.16689,-3.671559 h 6.34178 v -1.668892 c 0,-2.002669 -1.16822,-3.337781 -3.17088,-3.337781 -2.00268,0 -3.1709,1.168223 -3.1709,3.337781 z m 42.55672,3.671559 -0.16689,1.502002 c 0,2.002669 1.33511,3.170893 3.50467,3.170893 1.66889,0 3.17089,-0.500668 4.83978,-1.335113 0.16689,0 0.33379,-0.166889 0.50067,-0.166889 0.33378,0 0.50066,0.166889 0.66756,0.333778 0.16689,0.166889 0.50066,0.667556 0.50066,0.667556 0.33379,0.500668 0.66756,1.168225 0.66756,1.668892 0,0.834445 -0.50067,1.66889 -1.16822,2.002669 -1.83579,1.001334 -4.00534,1.502001 -6.34179,1.502001 -2.67022,0 -4.83978,-0.667556 -6.50867,-2.002669 -1.66889,-1.502001 -2.67023,-3.504671 -2.67023,-6.008007 v -6.508675 c 0,-5.173561 3.33778,-8.344454 9.01202,-8.344454 5.50733,0 8.67822,3.004004 8.67822,8.344454 v 4.005339 c 0,0.500667 -0.50066,1.001334 -1.00133,1.001334 h -10.51401 z m -0.16689,-3.671559 h 6.34179 v -1.668892 c 0,-2.002669 -1.16823,-3.337781 -3.1709,-3.337781 -2.00267,0 -3.17089,1.168223 -3.17089,3.337781 z m -98.13079,12.68357 h 2.33645 c 0.50067,0 1.00133,-0.500667 1.00133,-1.001334 V 41.095483 c 0,-5.674229 -3.00399,-9.012011 -8.01067,-9.012011 -1.502,0 -3.17089,0.333778 -4.17222,0.667556 v -6.174895 c 0,-1.335113 -1.16823,-2.503337 -2.50335,-2.503337 h -2.33644 c -0.50067,0 -1.00134,0.500667 -1.00134,1.001335 v 28.371145 c 0,0.500667 0.50067,1.001334 1.00134,1.001334 h 3.83844 c 0.50068,0 1.00135,-0.500667 1.00135,-1.001334 V 37.757701 c 0.83444,-0.333778 2.00266,-0.500667 2.83711,-0.500667 2.50333,0 3.50467,1.168223 3.50467,4.005338 v 10.847791 c 0.16688,1.168224 1.16823,2.336447 2.50333,2.336447 z m 25.20026,-14.018684 v 6.174897 c 0,5.173562 -3.50468,8.344454 -9.3458,8.344454 -5.67422,0 -9.34578,-3.170892 -9.34578,-8.344454 v -6.174897 c 0,-5.173561 3.50467,-8.344454 9.34578,-8.344454 5.84112,0 9.3458,3.170893 9.3458,8.344454 z m -5.84112,0 c 0,-2.002669 -1.16823,-3.337781 -3.33778,-3.337781 -2.16956,0 -3.33778,1.168223 -3.33778,3.337781 v 6.174897 c 0,2.002669 1.16822,3.170892 3.33778,3.170892 2.16955,0 3.33778,-1.168223 3.33778,-3.170892 z M 97.32985,37.590812 c 0,5.340451 -4.005337,9.012011 -9.345788,9.012011 -1.335113,0 -2.503336,-0.166889 -3.67156,-0.667556 v 7.510009 c 0,0.500667 -0.500667,1.001334 -1.001334,1.001334 h -3.83845 c -0.500667,0 -1.001334,-0.500667 -1.001334,-1.001334 V 26.909911 c 0,-0.667556 0.500667,-1.168224 1.001334,-1.335113 2.503336,-0.834446 5.006673,-1.335113 7.676898,-1.335113 6.008008,0 10.180234,3.67156 10.180234,9.34579 z m -6.008006,-4.339116 c 0,-2.670226 -1.835781,-4.005338 -4.339117,-4.005338 -1.502001,0 -2.503336,0.500667 -2.503336,0.500667 v 11.014679 c 1.001335,0.500668 1.502002,0.667557 2.670225,0.667557 2.503336,0 4.339117,-1.502002 4.339117,-4.005338 V 33.251696 Z M 205.1402,37.590812 c 0,5.340451 -4.00534,9.012011 -9.34578,9.012011 -1.33512,0 -2.50334,-0.166889 -3.67157,-0.667556 v 7.510009 c 0,0.500667 -0.50066,1.001334 -1.00133,1.001334 h -3.83845 c -0.50067,0 -1.00134,-0.500667 -1.00134,-1.001334 V 26.909911 c 0,-0.667556 0.50067,-1.168224 1.00134,-1.335113 2.50334,-0.834446 5.00668,-1.335113 7.6769,-1.335113 6.008,0 10.18023,3.67156 10.18023,9.34579 z m -6.008,-4.339116 c 0,-2.670226 -1.83578,-4.005338 -4.33912,-4.005338 -1.502,0 -2.50333,0.500667 -2.50333,0.500667 v 11.014679 c 1.00133,0.500668 1.50199,0.667557 2.67022,0.667557 2.50334,0 4.33911,-1.502002 4.33911,-4.005338 v -4.172227 z"
     id="path29"
     style="stroke-width:1.66889" /><path
     d="m 48.431347,27.0768 c 0,-1.168224 -1.001334,-2.169558 -2.169557,-2.169558 h -4.005338 l -9.1789,-10.514013 c -0.834446,-1.001335 -2.169559,-1.335113 -3.504671,-1.001335 l -3.170893,1.001335 c -0.500667,0.166889 -0.667556,0.834445 -0.333778,1.168223 l 10.013345,9.512679 H 20.894648 c -0.500667,0 -0.834445,0.333778 -0.834445,0.834445 v 1.668891 c 0,1.168224 1.001334,2.169558 2.169558,2.169558 h 2.336448 v 8.010676 c 0,6.008008 3.170892,9.512678 8.511343,9.512678 1.668891,0 3.004003,-0.166889 4.672894,-0.834445 v 5.340451 c 0,1.502002 1.168224,2.670225 2.670225,2.670225 h 2.336448 c 0.500667,0 1.001335,-0.500667 1.001335,-1.001334 v -23.86514 h 3.838448 c 0.500667,0 0.834445,-0.333778 0.834445,-0.834445 z M 37.750446,41.429261 c -1.001334,0.500668 -2.336447,0.667557 -3.337781,0.667557 -2.670226,0 -4.005339,-1.335114 -4.005339,-4.339117 v -8.010676 h 7.34312 z"
     fill="#ffffff"
     id="path31"
     style="stroke-width:1.66889" /></svg>
