<svg width="85" height="35" viewBox="0 0 85 35" fill="none" xmlns="http://www.w3.org/2000/svg">
<g clip-path="url(#tide-logo-blue-rgb-clip0)">
<path d="M27.9992 4.01622C27.9992 6.23436 26.21 8.03222 24.0025 8.03222C21.7951 8.03222 20.0059 6.23436 20.0059 4.01622C20.0059 1.79808 21.7951 0.000224873 24.0025 0.000224873C26.21 -0.023124 27.9992 1.77473 27.9992 4.01622Z" fill="#4050FB"/>
<path d="M28.149 4.01622C28.149 6.23436 26.3503 8.03222 24.1311 8.03222C21.912 8.03222 20.1133 6.23436 20.1133 4.01622C20.1133 1.79808 21.912 0.000224873 24.1311 0.000224873C26.3503 -0.023124 28.149 1.77473 28.149 4.01622Z" fill="#4050FB"/>
<path d="M17.1459 9.82948V15.7834H10.2315V25.66C10.2315 27.8548 11.2359 28.7187 13.5018 28.7187H17.1693V34.4158H13.0346C6.51731 34.4158 3.57401 31.4972 3.57401 25.9869V15.7834H0V9.82948C1.9622 9.82948 3.55065 8.24176 3.55065 6.28046V3.50195H10.2081V9.82948H17.1459Z" fill="#4050FB"/>
<path d="M27.4465 9.83008H20.7891V34.4164H27.4465V9.83008Z" fill="#4050FB"/>
<path d="M50.083 32.6185C48.3544 33.9727 45.668 34.7665 42.8882 34.7665C36.184 34.7665 30.4609 29.3496 30.4609 22.2516C30.4609 15.1535 36.1607 9.59653 42.8882 9.59653C45.668 9.59653 48.3544 10.4604 50.083 11.7913V1.58789H56.7404V34.4397H50.083V32.6185ZM50.1764 22.2516C50.1764 18.6092 47.2097 15.6439 43.4722 15.6439C39.8281 15.6439 37.0016 18.6092 37.0016 22.2516C37.0016 25.9407 39.8281 28.8593 43.4722 28.8593C47.3032 28.8593 50.1764 25.9407 50.1764 22.2516Z" fill="#4050FB"/>
<path d="M71.9236 35.0003C64.0515 35.0003 58.9824 29.49 58.9824 22.2051C58.9824 15.1071 64.2617 9.36328 71.9703 9.36328C79.7491 9.36328 84.4443 14.7335 84.4443 21.8782C84.4443 22.8355 84.3509 24.073 84.3509 24.2365H65.5465C66.2706 27.3419 68.6066 29.3732 72.0638 29.3732C75.0304 29.3732 77.2029 28.089 78.5811 26.1044L83.58 29.1631C81.1974 32.7588 77.3898 35.0003 71.9236 35.0003ZM65.78 19.2865H77.7168C76.9926 16.3212 74.61 14.8269 71.9236 14.8269C68.8168 14.8269 66.6443 16.508 65.78 19.2865Z" fill="#4050FB"/>
</g>
<defs>
<clipPath id="tide-logo-blue-rgb-clip0">
<rect width="85" height="35" fill="white"/>
</clipPath>
</defs>
</svg>
